<svg xmlns="http://www.w3.org/2000/svg" width="282.9" height="60" viewBox="0 0 282.9 60"><path fill="#444" d="M128 14.4h8.6V16H128v-1.6zm0-5.3h8.6v1.7H128V9.1zm0-5.2h8.6v1.7H128V3.9zm-2.6-.9v3.5h-.9V3.9h-.9V3h1.8zm-.9 7.1v.7h1.7v.9h-2.6v-2l1.7-.8v-.7h-1.7v-.8h2.6v2l-1.7.7zm1.7 2.5V17h-2.6v-.9h1.7v-.8h-1.7v-.9h1.7v-.9h-1.7v-.9h2.6zm78.1-5.2l4.5 4.6V9.3c1.3 0 4.7 0 4.7 3.7a4 4 0 0 1-3.1 4c2.7-.4 4.9-2.9 4.9-5.9 0-5.7-5.8-5.7-6.6-5.7V3l-4.4 4.4zm31 0l-4.5 4.6V9.3c-1.3 0-4.7 0-4.7 3.7a4 4 0 0 0 3.1 4c-2.7-.4-4.9-2.9-4.9-5.9 0-5.7 5.8-5.7 6.6-5.7V3l4.4 4.4zM57.6 4a3.32 3.32 0 0 0-4.7 0l-3 3a3.32 3.32 0 0 0 0 4.7c.1.1.2.2.4.3l1.1-1.1c-.1-.1-.3-.2-.4-.3-.7-.7-.7-1.8 0-2.5l3-3c.7-.7 1.8-.7 2.5 0s.7 1.8 0 2.5L55.1 9c.2.6.4 1.2.4 1.8l2.1-2.1c1.2-1.3 1.2-3.4 0-4.7zm-4.4 4.3l-.3-.3-1.1 1.1c.1.1.3.2.4.3.7.7.7 1.8 0 2.5l-3 3c-.7.7-1.8.7-2.5 0s-.7-1.8 0-2.5L48 11c-.2-.6-.4-1.2-.4-1.8l-2.1 2.1a3.32 3.32 0 1 0 4.7 4.7l3-3c1.2-1.2 1.2-3.4 0-4.7zm95.7-4.4h8.7v1.8h-8.7V3.9zm0 5.2h8.7v1.8h-8.7V9.1zm0 5.3h8.7v1.8h-8.7v-1.8zm-5.3-9.6c0-1 .8-1.8 1.8-1.8s1.8.8 1.8 1.8-.8 1.8-1.8 1.8c-1-.1-1.8-.9-1.8-1.8zm0 5.2c0-1 .8-1.8 1.8-1.8s1.8.8 1.8 1.8-.8 1.8-1.8 1.8-1.8-.8-1.8-1.8zm0 5.2c0-1 .8-1.8 1.8-1.8s1.8.8 1.8 1.8-.8 1.8-1.8 1.8-1.8-.8-1.8-1.8zm-78-6.7c2 0 3.5 1.5 3.5 3.5s-1.5 3.5-3.5 3.5c-1.9 0-3.5-1.5-3.5-3.5v-.5c0-3.8 3.1-7 7-7v2c-1.3 0-2.6.5-3.5 1.5-.2.2-.3.4-.5.6.1-.1.3-.1.5-.1zm9 0c2 0 3.5 1.5 3.5 3.5s-1.5 3.5-3.5 3.5c-1.9 0-3.5-1.5-3.5-3.5v-.5c0-3.8 3.2-7 7-7v2c-1.3 0-2.6.5-3.5 1.5-.2.2-.3.4-.5.6.1-.1.3-.1.5-.1z"/><path fill="#C6C6C6" d="M250 3c-3.8 0-7 3.1-7 7s3.2 7 7 7 7-3.1 7-7-3.2-7-7-7zm.9 11.4h-1.8v-1.8h1.8v1.8zm2.6-4.4l-2.6 1.8h-1.8v-.9l2.6-1.8v-.9h-4.4V6.5h5.2c.5 0 .9.4.9.9V10h.1z"/><path fill="#444" d="M13.1 9.6c.5-.7.9-1.6.9-2.6 0-2.2-1.8-4-4-4H5v14h6a4.01 4.01 0 0 0 2.1-7.4zM8 5h1.6c.9 0 1.6.9 1.6 2s-.7 2-1.6 2H8V5zm2.5 10H8v-4h2.5c.9 0 1.7.9 1.7 2s-.8 2-1.7 2zm29-12v1h-2l-5 12h2v1h-7v-1h2l5-12h-2V3h7zm47.2 6.2V6.1c0-.4.2-.8.5-1.1.3-.3.8-.4 1.1-.4V3C86.5 3 85 4.4 85 6.1v2.3c0 .4-.3.8-.8.8h-.8v1.6h.8c.5 0 .8.3.8.8v2.3c0 1.7 1.5 3.1 3.3 3.1v-1.6c-.4 0-.8-.2-1.1-.4-.3-.3-.5-.7-.5-1.1v-3.1c0-.4-.3-.8-.8-.8.4 0 .8-.3.8-.8z"/><path fill="#C6C6C6" d="M165.1 12h10v2h-10v-2zm-3-3h16v2h-16V9zm0 6h16v2h-16v-2z"/><path fill="#444" d="M162.1 3h16v2h-16zm3 3h10v2h-10zm18.5 3h2.3v2h-2.3zm3.4 0h2.3v2H187z"/><path fill="#C6C6C6" d="M186.6 12h10v2h-10v-2zm-3 3h16v2h-16v-2zm0-12h16v2h-16zm3 3h10v2h-10z"/><path fill="#444" d="M190.4 9h2.3v2h-2.3zm3.4 0h2.3v2h-2.3zm3.4-.1h2.3v2h-2.3zM93.6 10.8v3.1c0 .4-.2.8-.5 1.1-.3.3-.7.4-1.1.4V17c1.8 0 3.2-1.4 3.2-3.1v-2.3c0-.4.3-.8.8-.8h.8V9.2H96c-.5 0-.8-.3-.8-.8V6.1c0-1.7-1.5-3.1-3.3-3.1v1.6c.4 0 .8.2 1.1.4.3.3.5.7.5 1.1v3.1c0 .4.3.8.8.8-.3 0-.7.3-.7.8zM118.2 4v12h-15V4h15m1-1h-17v14h17V3z"/><path fill="#444" d="M113.9 6.8c0-.9.7-1.6 1.6-1.6.9 0 1.6.7 1.6 1.6s-.7 1.6-1.6 1.6c-.8 0-1.6-.7-1.6-1.6zm3.2 8h-12.7l3.1-8.6 4.3 5.4 2.1-1.6zm151.4-5l-.8-.8-2.7 2.5 2.7 2.5.8-.8-1.8-1.7zm1.9 3.4l.8.8 2.8-2.5-2.8-2.5-.8.8 1.8 1.7zm.9-10.2v4.7h4.7z"/><path fill="#444" d="M275 6.7V16h-11V4h8.3l-1-1H264a1 1 0 0 0-1 1v12c0 .5.4 1 1 1h11c.5 0 1-.5 1-1V7.7l-1-1z"/><g fill="#CECECE"><path d="M128 34.4h8.6V36H128v-1.6zm0-5.3h8.6v1.7H128v-1.7zm0-5.2h8.6v1.7H128v-1.7zm-2.6-.9v3.5h-.9v-2.6h-.9V23h1.8zm-.9 7.1v.7h1.7v.9h-2.6v-2l1.7-.8v-.7h-1.7v-.8h2.6v2l-1.7.7zm1.7 2.5V37h-2.6v-.9h1.7v-.8h-1.7v-.9h1.7v-.9h-1.7v-.9h2.6zm78.1-5.2l4.5 4.6v-2.7c1.3 0 4.7 0 4.7 3.7a4 4 0 0 1-3.1 4c2.7-.4 4.9-2.9 4.9-5.9 0-5.7-5.8-5.7-6.6-5.7V23l-4.4 4.4zm31 0l-4.5 4.6v-2.7c-1.3 0-4.7 0-4.7 3.7a4 4 0 0 0 3.1 4c-2.7-.4-4.9-2.9-4.9-5.9 0-5.7 5.8-5.7 6.6-5.7V23l4.4 4.4zM57.6 24a3.32 3.32 0 0 0-4.7 0l-3 3a3.32 3.32 0 0 0 0 4.7c.1.1.2.2.4.3l1.1-1.1c-.1-.1-.3-.2-.4-.3-.7-.7-.7-1.8 0-2.5l3-3c.7-.7 1.8-.7 2.5 0s.7 1.8 0 2.5L55.1 29c.2.6.4 1.2.4 1.8l2.1-2.1c1.2-1.3 1.2-3.4 0-4.7zm-4.4 4.3l-.3-.3-1.1 1.1c.1.1.3.2.4.3.7.7.7 1.8 0 2.5l-3 3c-.7.7-1.8.7-2.5 0s-.7-1.8 0-2.5L48 31c-.2-.6-.4-1.2-.4-1.8l-2.1 2.1a3.32 3.32 0 1 0 4.7 4.7l3-3c1.2-1.2 1.2-3.4 0-4.7zm95.7-4.4h8.7v1.8h-8.7v-1.8zm0 5.2h8.7v1.8h-8.7v-1.8zm0 5.3h8.7v1.8h-8.7v-1.8zm-5.3-9.6c0-1 .8-1.8 1.8-1.8s1.8.8 1.8 1.8-.8 1.8-1.8 1.8c-1-.1-1.8-.9-1.8-1.8zm0 5.2c0-1 .8-1.8 1.8-1.8s1.8.8 1.8 1.8-.8 1.8-1.8 1.8-1.8-.8-1.8-1.8zm0 5.2c0-1 .8-1.8 1.8-1.8s1.8.8 1.8 1.8-.8 1.8-1.8 1.8-1.8-.8-1.8-1.8zm-78-6.7c2 0 3.5 1.5 3.5 3.5s-1.5 3.5-3.5 3.5c-1.9 0-3.5-1.5-3.5-3.5v-.5c0-3.8 3.1-7 7-7v2c-1.3 0-2.6.5-3.5 1.5-.2.2-.3.4-.5.6.1-.1.3-.1.5-.1zm9 0c2 0 3.5 1.5 3.5 3.5s-1.5 3.5-3.5 3.5c-1.9 0-3.5-1.5-3.5-3.5v-.5c0-3.8 3.2-7 7-7v2c-1.3 0-2.6.5-3.5 1.5-.2.2-.3.4-.5.6.1-.1.3-.1.5-.1zM250 23c-3.8 0-7 3.1-7 7s3.2 7 7 7 7-3.1 7-7-3.2-7-7-7zm.9 11.4h-1.8v-1.8h1.8v1.8zm2.6-4.4l-2.6 1.8h-1.8v-.9l2.6-1.8v-.9h-4.4v-1.7h5.2c.5 0 .9.4.9.9V30h.1zm-240.4-.4c.5-.7.9-1.6.9-2.6 0-2.2-1.8-4-4-4H5v14h6a4.01 4.01 0 0 0 2.1-7.4zM8 25h1.6c.9 0 1.6.9 1.6 2s-.7 2-1.6 2H8v-4zm2.5 10H8v-4h2.5c.9 0 1.7.9 1.7 2s-.8 2-1.7 2zm29-12v1h-2l-5 12h2v1h-7v-1h2l5-12h-2v-1h7zm47.2 6.2v-3.1c0-.4.2-.8.5-1.1.3-.3.8-.4 1.1-.4V23c-1.8 0-3.3 1.4-3.3 3.1v2.3c0 .4-.3.8-.8.8h-.8v1.6h.8c.5 0 .8.3.8.8v2.3c0 1.7 1.5 3.1 3.3 3.1v-1.6c-.4 0-.8-.2-1.1-.4-.3-.3-.5-.7-.5-1.1v-3.1c0-.4-.3-.8-.8-.8.4 0 .8-.3.8-.8zm78.4 2.8h10v2h-10v-2zm-3-3h16v2h-16v-2zm0 6h16v2h-16v-2zm0-12h16v2h-16zm3 3h10v2h-10zm18.5 3h2.3v2h-2.3zm3.4 0h2.3v2H187zm-.4 3h10v2h-10v-2zm-3 3h16v2h-16v-2zm0-12h16v2h-16zm3 3h10v2h-10zm3.8 3h2.3v2h-2.3zm3.4 0h2.3v2h-2.3zm3.4-.1h2.3v2h-2.3zM93.6 30.8v3.1c0 .4-.2.8-.5 1.1-.3.3-.7.4-1.1.4V37c1.8 0 3.2-1.4 3.2-3.1v-2.3c0-.4.3-.8.8-.8h.8v-1.6H96c-.5 0-.8-.3-.8-.8v-2.3c-.1-1.7-1.6-3.1-3.3-3.1v1.6c.4 0 .8.2 1.1.4.3.3.5.7.5 1.1v3.1c0 .4.3.8.8.8-.3 0-.7.3-.7.8zm24.6-6.8v12h-15V24h15m1-1h-17v14h17V23z"/><path d="M113.9 26.8c0-.9.7-1.6 1.6-1.6.9 0 1.6.7 1.6 1.6s-.7 1.6-1.6 1.6c-.8 0-1.6-.7-1.6-1.6zm3.2 8h-12.7l3.1-8.6 4.3 5.4 2.1-1.6zm151.4-5l-.8-.8-2.7 2.5 2.7 2.5.8-.8-1.8-1.7zm1.9 3.4l.8.8 2.8-2.5-2.8-2.5-.8.8 1.8 1.7zm.9-10.2v4.7h4.7z"/><path d="M275 26.7V36h-11V24h8.3l-1-1H264a1 1 0 0 0-1 1v12c0 .5.4 1 1 1h11c.5 0 1-.5 1-1v-8.3l-1-1z"/></g><g fill="#F90"><path d="M128 54.4h8.6V56H128v-1.6zm0-5.3h8.6v1.7H128v-1.7zm0-5.2h8.6v1.7H128v-1.7zm-2.6-.9v3.5h-.9v-2.6h-.9V43h1.8zm-.9 7.1v.7h1.7v.9h-2.6v-2l1.7-.8v-.7h-1.7v-.8h2.6v2l-1.7.7zm1.7 2.5V57h-2.6v-.9h1.7v-.8h-1.7v-.9h1.7v-.9h-1.7v-.9h2.6zm78.1-5.2l4.5 4.6v-2.7c1.3 0 4.7 0 4.7 3.7a4 4 0 0 1-3.1 4c2.7-.4 4.9-2.9 4.9-5.9 0-5.7-5.8-5.7-6.6-5.7V43l-4.4 4.4zm31 0l-4.5 4.6v-2.7c-1.3 0-4.7 0-4.7 3.7a4 4 0 0 0 3.1 4c-2.7-.4-4.9-2.9-4.9-5.9 0-5.7 5.8-5.7 6.6-5.7V43l4.4 4.4zM57.6 44a3.32 3.32 0 0 0-4.7 0l-3 3a3.32 3.32 0 0 0 0 4.7c.1.1.2.2.4.3l1.1-1.1c-.1-.1-.3-.2-.4-.3-.7-.7-.7-1.8 0-2.5l3-3c.7-.7 1.8-.7 2.5 0s.7 1.8 0 2.5L55.1 49c.2.6.4 1.2.4 1.8l2.1-2.1c1.2-1.3 1.2-3.4 0-4.7zm-4.4 4.3l-.3-.3-1.1 1.1c.1.1.3.2.4.3.7.7.7 1.8 0 2.5l-3 3c-.7.7-1.8.7-2.5 0s-.7-1.8 0-2.5L48 51c-.2-.6-.4-1.2-.4-1.8l-2.1 2.1a3.32 3.32 0 1 0 4.7 4.7l3-3c1.2-1.2 1.2-3.4 0-4.7zm95.7-4.4h8.7v1.8h-8.7v-1.8zm0 5.2h8.7v1.8h-8.7v-1.8zm0 5.3h8.7v1.8h-8.7v-1.8zm-5.3-9.6c0-1 .8-1.8 1.8-1.8s1.8.8 1.8 1.8-.8 1.8-1.8 1.8c-1-.1-1.8-.9-1.8-1.8zm0 5.2c0-1 .8-1.8 1.8-1.8s1.8.8 1.8 1.8-.8 1.8-1.8 1.8-1.8-.8-1.8-1.8zm0 5.2c0-1 .8-1.8 1.8-1.8s1.8.8 1.8 1.8-.8 1.8-1.8 1.8-1.8-.8-1.8-1.8zm-78-6.7c2 0 3.5 1.5 3.5 3.5s-1.5 3.5-3.5 3.5c-1.9 0-3.5-1.5-3.5-3.5v-.5c0-3.8 3.1-7 7-7v2c-1.3 0-2.6.5-3.5 1.5-.2.2-.3.4-.5.6.1-.1.3-.1.5-.1zm9 0c2 0 3.5 1.5 3.5 3.5s-1.5 3.5-3.5 3.5c-1.9 0-3.5-1.5-3.5-3.5v-.5c0-3.8 3.2-7 7-7v2c-1.3 0-2.6.5-3.5 1.5-.2.2-.3.4-.5.6.1-.1.3-.1.5-.1zM250 43c-3.8 0-7 3.1-7 7s3.2 7 7 7 7-3.1 7-7-3.2-7-7-7zm.9 11.4h-1.8v-1.8h1.8v1.8zm2.6-4.4l-2.6 1.8h-1.8v-.9l2.6-1.8v-.9h-4.4v-1.7h5.2c.5 0 .9.4.9.9V50h.1zm-240.4-.4c.5-.7.9-1.6.9-2.6 0-2.2-1.8-4-4-4H5v14h6a4.01 4.01 0 0 0 2.1-7.4zM8 45h1.6c.9 0 1.6.9 1.6 2s-.7 2-1.6 2H8v-4zm2.5 10H8v-4h2.5c.9 0 1.7.9 1.7 2s-.8 2-1.7 2zm29-12v1h-2l-5 12h2v1h-7v-1h2l5-12h-2v-1h7zm47.2 6.2v-3.1c0-.4.2-.8.5-1.1s.8-.4 1.1-.4V43c-1.8 0-3.3 1.4-3.3 3.1v2.3c0 .4-.3.8-.8.8h-.8v1.6h.8c.5 0 .8.3.8.8v2.3c0 1.7 1.5 3.1 3.3 3.1v-1.6c-.4 0-.8-.2-1.1-.4-.3-.3-.5-.7-.5-1.1v-3.1c0-.4-.3-.8-.8-.8.4 0 .8-.3.8-.8zm78.4 2.8h10v2h-10v-2zm-3-3h16v2h-16v-2zm0 6h16v2h-16v-2zm0-12h16v2h-16zm3 3h10v2h-10zm18.5 3h2.3v2h-2.3zm3.4 0h2.3v2H187zm-.4 3h10v2h-10v-2zm-3 3h16v2h-16v-2zm0-12h16v2h-16zm3 3h10v2h-10zm3.8 3h2.3v2h-2.3zm3.4 0h2.3v2h-2.3zm3.4-.1h2.3v2h-2.3zM93.6 50.8v3.1c0 .4-.2.8-.5 1.1-.3.3-.7.4-1.1.4V57c1.8 0 3.2-1.4 3.2-3.1v-2.3c0-.4.3-.8.8-.8h.8v-1.6H96c-.5 0-.8-.3-.8-.8v-2.3c-.1-1.7-1.6-3.1-3.3-3.1v1.6c.4 0 .8.2 1.1.4.3.3.5.7.5 1.1v3.1c0 .4.3.8.8.8-.3 0-.7.3-.7.8zm24.6-6.8v12h-15V44h15m1-1h-17v14h17V43z"/><path d="M113.9 46.8c0-.9.7-1.6 1.6-1.6.9 0 1.6.7 1.6 1.6 0 .9-.7 1.6-1.6 1.6-.8 0-1.6-.7-1.6-1.6zm3.2 8h-12.7l3.1-8.6 4.3 5.4 2.1-1.6zm151.4-5l-.8-.8-2.7 2.5 2.7 2.5.8-.8-1.8-1.7zm1.9 3.4l.8.8 2.8-2.5-2.8-2.5-.8.8 1.8 1.7zm.9-10.2v4.7h4.7z"/><path d="M275 46.7V56h-11V44h8.3l-1-1H264a1 1 0 0 0-1 1v12c0 .5.4 1 1 1h11c.5 0 1-.5 1-1v-8.3l-1-1z"/></g></svg>